{"title":"Shrek.Forever.After.2010.BRRip.480p.H264.Feel-Free","uid":5965925,"size":1306881862,"categoryP":"video","categoryS":"movies","magnet":"?xt=urn:btih:4bd72e56e601dea96a7561ba6c5b10f9f9dede3d&amp;dn=Shrek.Forever.After.2010.BRRip.480p.H264.Feel-Free&amp;tr=udp%3A%2F%2Ftracker.openbittorrent.com%3A80&amp;tr=udp%3A%2F%2Fopen.demonii.com%3A1337&amp;tr=udp%3A%2F%2Ftracker.coppersurfer.tk%3A6969&amp;tr=udp%3A%2F%2Fexodus.desync.com%3A6969","seeders":1,"leechers":0,"uploader":"neon","files":10,"time":1290111101,"description":"Genre:Animation | Adventure | Comedy | Family | Fantasy\nLanguage.: English\nIMDB:http://www.imdb.com/title/tt0892791/\nSource:720p.BluRay.x264-REFiNED\n\n\nGeneral\nComplete name :Shrek.Forever.After.2010.BRRip.480p.H264.Feel-Free\nFormat : MPEG-4\nFormat profile : Base Media / Version 2\nCodec ID : mp42\nFile size : 1.21 GiB\nDuration : 1h 33mn\nOverall bit rate : 1 866 Kbps\nVideo #1\nCodec ID : avc1\nCodec ID/Info : Advanced Video Coding\nDuration : 1h 33mn\nBit rate mode : Variable\nBit rate : 1 386 Kbps\nWidth : 720 pixels\nHeight : 304 pixels\nDisplay aspect ratio : 2.35:1\nFrame rate mode : Constant\nFrame rate : 23.976 fps\nResolution : 24 bits\nColorimetry : 4:2:0\nScan type : Progressive\nBits/(Pixel*Frame) : 0.264\nStream size : 924 MiB (74%)\nAudio #2\nID : 2\nFormat : AAC\nFormat/Info : Advanced Audio Codec\nFormat version : Version 4\nFormat profile : LC\nFormat settings, SBR : No\nCodec ID : 40\nDuration : 1h 33mn\nBit rate mode : Constant\nBit rate : 477 Kbps\nNominal bit rate : 480 Kbps\nChannel(s) : 6 channels\nChannel positions : Front: L C R, Rear: L R, LFE\nSampling rate : 48.0 KHz\nResolution : 16 bits\nStream size : 318 MiB (26%)\n\nPlot:\nRumpelstiltskin tricks a mid-life crisis burdened Shrek into allowing himself to be erased from existence and cast in a dark alternate timeline where Rumpel rules supreme\n\n","torrent":{"xt":"urn:btih:4bd72e56e601dea96a7561ba6c5b10f9f9dede3d","amp;dn":"Shrek.Forever.After.2010.BRRip.480p.H264.Feel-Free","amp;tr":["udp%3A%2F%2Ftracker.openbittorrent.com%3A80","udp%3A%2F%2Fopen.demonii.com%3A1337","udp%3A%2F%2Ftracker.coppersurfer.tk%3A6969","udp%3A%2F%2Fexodus.desync.com%3A6969"],"infoHash":"4bd72e56e601dea96a7561ba6c5b10f9f9dede3d","infoHashBuffer":{"type":"Buffer","data":[75,215,46,86,230,1,222,169,106,117,97,186,108,91,16,249,249,222,222,61]},"announce":[],"urlList":[]}}